<svg width="64" height="64" viewBox="0 0 64 64" fill="none" xmlns="http://www.w3.org/2000/svg">
<path d="M53.4447 43.484C52.314 45.9307 51.7727 47.024 50.322 49.1827C48.294 52.2013 45.4287 55.968 41.8873 55.9947C38.7393 56.0187 37.926 53.9853 33.6527 54.0187C29.3807 54.04 28.49 56.032 25.3367 55.9973C21.798 55.968 19.086 52.5733 17.0567 49.5627C11.378 41.1093 10.7807 31.2053 14.2887 25.9347C16.77 22.1973 20.698 20.0027 24.3847 20.0027C28.1407 20.0027 30.502 22.0213 33.606 22.0213C36.622 22.0213 38.4567 19.9987 42.8007 19.9987C46.086 19.9987 49.5607 21.7493 52.042 24.7653C43.922 29.1147 45.2407 40.4493 53.4447 43.484Z" fill="#1B1B1B"/>
<path d="M40.0618 16.096C41.7538 13.9933 43.0378 11.024 42.5711 8C39.8124 8.184 36.5831 9.89067 34.6978 12.1C32.9884 14.1133 31.5711 17.1027 32.1231 19.996C35.1351 20.088 38.2524 18.352 40.0618 16.096Z" fill="#1B1B1B"/>
<path d="M48.982 27.228C37.334 40.0013 26.6674 28.0013 12.3047 37.1227C12.8047 41.1587 14.3447 45.5267 17.058 49.564C19.086 52.5747 21.7994 55.9693 25.338 55.9987C28.4914 56.032 29.382 54.04 33.654 54.02C37.9274 53.988 38.7394 56.02 41.8887 55.996C45.43 55.968 48.2954 52.2013 50.3234 49.184C51.774 47.0253 52.3154 45.932 53.446 43.4853C46.5047 40.9173 44.5194 32.4187 48.982 27.228Z" fill="#1B1B1B"/>
</svg>
