<svg width="64" height="64" viewBox="0 0 64 64" fill="none" xmlns="http://www.w3.org/2000/svg">
<path d="M31.9993 6.66666C25.2805 6.66666 18.8369 9.3357 14.086 14.0866C9.33506 18.8375 6.66602 25.2812 6.66602 32C6.66602 38.7188 9.33506 45.1624 14.086 49.9134C18.8369 54.6643 25.2805 57.3333 31.9993 57.3333C38.7182 57.3333 45.1618 54.6643 49.9127 49.9134C54.6636 45.1624 57.3327 38.7188 57.3327 32C57.3327 25.2812 54.6636 18.8375 49.9127 14.0866C45.1618 9.3357 38.7182 6.66666 31.9993 6.66666Z" fill="#039BE5"/>
<path d="M35.43 38.7147H41.986L43.0154 32.0547H35.4287V28.4147C35.4287 25.648 36.3327 23.1947 38.9207 23.1947H43.0794V17.3827C42.3487 17.284 40.8034 17.068 37.8834 17.068C31.786 17.068 28.2114 20.288 28.2114 27.624V32.0547H21.9434V38.7147H28.2114V57.02C29.4527 57.2066 30.71 57.3333 32.0007 57.3333C33.1674 57.3333 34.306 57.2267 35.43 57.0747V38.7147Z" fill="white"/>
</svg>
