<svg width="64" height="64" viewBox="0 0 64 64" fill="none" xmlns="http://www.w3.org/2000/svg">
<path d="M58.1487 26.7773H56.0007V26.6667H32.0007V37.3333H47.0713C44.8727 43.5427 38.9647 48 32.0007 48C23.1647 48 16.0007 40.836 16.0007 32C16.0007 23.164 23.1647 16 32.0007 16C36.0793 16 39.79 17.5387 42.6153 20.052L50.158 12.5093C45.3953 8.07067 39.0247 5.33334 32.0007 5.33334C17.274 5.33334 5.33398 17.2733 5.33398 32C5.33398 46.7267 17.274 58.6667 32.0007 58.6667C46.7273 58.6667 58.6673 46.7267 58.6673 32C58.6673 30.212 58.4833 28.4667 58.1487 26.7773Z" fill="#FFC107"/>
<path d="M8.4082 19.588L17.1695 26.0133C19.5402 20.144 25.2815 16 32.0002 16C36.0789 16 39.7895 17.5387 42.6149 20.052L50.1575 12.5093C45.3949 8.07067 39.0242 5.33334 32.0002 5.33334C21.7575 5.33334 12.8749 11.116 8.4082 19.588Z" fill="#FF3D00"/>
<path d="M31.9998 58.6667C38.8878 58.6667 45.1464 56.0307 49.8784 51.744L41.6251 44.76C38.9478 46.788 35.6198 48 31.9998 48C25.0638 48 19.1744 43.5773 16.9558 37.4053L8.25977 44.1053C12.6731 52.7413 21.6358 58.6667 31.9998 58.6667Z" fill="#4CAF50"/>
<path d="M58.148 26.7773H56V26.6667H32V37.3333H47.0707C46.0147 40.316 44.096 42.888 41.6213 44.7613C41.6227 44.76 41.624 44.76 41.6253 44.7587L49.8787 51.7427C49.2947 52.2733 58.6667 45.3333 58.6667 32C58.6667 30.212 58.4827 28.4667 58.148 26.7773Z" fill="#1976D2"/>
</svg>
